<?xml version="1.0" standalone="no"?>
<!DOCTYPE svg PUBLIC "-//W3C//DTD SVG 20010904//EN"
 "http://www.w3.org/TR/2001/REC-SVG-20010904/DTD/svg10.dtd">
<svg version="1.0" xmlns="http://www.w3.org/2000/svg"
 width="2000.000000pt" height="2000.000000pt" viewBox="0 0 2000.000000 2000.000000"
 preserveAspectRatio="xMidYMid meet">
<metadata>
Created by potrace 1.14, written by Peter Selinger 2001-2017
</metadata>
<g transform="translate(0.000000,2000.000000) scale(0.100000,-0.100000)"
fill="#000000" stroke="none">
<path d="M0 10000 l0 -10000 10000 0 10000 0 0 10000 0 10000 -10000 0 -10000
0 0 -10000z m7850 3976 c1278 -162 2379 -816 3116 -1849 144 -201 313 -492
297 -508 -5 -5 -808 -433 -1784 -950 -976 -517 -1785 -950 -1797 -962 -69 -64
-75 -174 -14 -246 17 -19 701 -437 1766 -1079 957 -576 1741 -1052 1743 -1058
4 -13 -111 -197 -220 -351 -367 -516 -868 -968 -1422 -1284 -567 -324 -1212
-518 -1889 -570 -195 -15 -617 -7 -801 16 -1205 146 -2251 726 -2998 1662
-450 565 -767 1274 -892 1993 -74 430 -85 909 -30 1336 86 665 324 1307 693
1869 670 1021 1723 1718 2932 1939 117 21 310 47 460 60 116 10 721 -3 840
-18z m6177 -3572 c54 -40 64 -66 91 -227 15 -86 32 -160 37 -166 6 -5 71 -25
145 -45 180 -48 219 -79 228 -180 6 -77 -21 -122 -107 -176 -36 -23 -101 -64
-143 -90 l-78 -49 0 -164 c0 -149 -2 -167 -22 -207 -25 -49 -73 -86 -123 -96
-59 -11 -105 11 -219 106 -59 50 -112 93 -117 96 -5 3 -74 -15 -153 -40 -79
-25 -161 -46 -182 -46 -91 0 -173 94 -161 183 4 23 36 106 72 185 36 79 62
148 59 154 -4 6 -44 62 -90 125 -46 63 -89 132 -95 154 -16 50 0 106 42 154
46 53 85 60 236 46 71 -6 140 -11 154 -11 22 0 39 20 119 141 109 164 131 181
223 176 38 -2 66 -10 84 -23z m-3301 -163 c60 -27 78 -57 130 -214 25 -78 49
-145 53 -149 4 -4 72 -15 151 -24 79 -8 156 -22 171 -29 42 -22 86 -80 94
-123 14 -88 -13 -128 -185 -272 -41 -34 -80 -68 -86 -76 -8 -10 -5 -50 12
-151 27 -160 29 -213 10 -251 -35 -67 -116 -110 -184 -97 -20 4 -84 35 -142
70 -58 34 -115 68 -128 74 -20 11 -39 4 -162 -58 -161 -82 -202 -89 -276 -46
-44 26 -84 90 -84 136 0 13 18 89 40 169 22 80 40 155 40 167 0 14 -31 50 -96
110 -53 48 -107 106 -120 129 -38 65 -30 150 19 202 42 45 76 55 236 66 l154
11 69 149 c37 82 76 158 85 169 24 27 91 57 128 57 17 0 48 -9 71 -19z"/>
</g>
</svg>
